<svg xmlns="http://www.w3.org/2000/svg" width="234" height="163" viewBox="0 0 234 163" fill="none" role="img" aria-labelledby="title"><title id="title">SniffPal — Every friendship starts with a sniff.</title><defs><linearGradient id="sniffpal-violet" x1="8" y1="4" x2="56" y2="60" gradientUnits="userSpaceOnUse"><stop stop-color="#8B5CF6"/><stop offset="1" stop-color="#6D28D9"/></linearGradient></defs><g transform="translate(73 0) scale(1.375)"><path d="M18 4 H46 C55.9 4 60 8.1 60 18 V40 C60 49.9 55.9 54 46 54 H27 L15.2 61.4 C13.6 62.4 12 61.4 12.2 59.6 L13 53.2 C6.6 51.6 4 47.4 4 40 V18 C4 8.1 8.1 4 18 4 Z" fill="url(#sniffpal-violet)"/><circle cx="18.6" cy="19.4" r="3" fill="#fff"/><circle cx="45.4" cy="19.4" r="3" fill="#fff"/><path d="M32 33.26 C28.47 30.9 24.2 28.25 24.2 24.57 C24.2 22.29 25.97 20.6 28.25 20.6 C29.79 20.6 31.19 21.41 32 22.73 C32.81 21.41 34.21 20.6 35.75 20.6 C38.03 20.6 39.8 22.29 39.8 24.57 C39.8 28.25 35.53 30.9 32 33.26 Z" fill="#fff"/><path d="M22.6 38.6 C24.2 44 30.4 43.8 32 39 C33.6 43.8 39.8 44 41.4 38.6 M32 32.4 V39" fill="none" stroke="#fff" stroke-width="3" stroke-linecap="round" stroke-linejoin="round"/></g><g transform="translate(0 132.8)"><path d="M57.44 0.36Q51.84 0.36 48.48-2.14Q45.12-4.64 44.56-9.20L50.48-9.20Q50.76-6.88 52.72-5.54Q54.68-4.20 57.72-4.20Q60.20-4.20 61.54-5.08Q62.88-5.96 62.88-7.44Q62.88-8.84 62.08-9.70Q61.28-10.56 59.32-11.08L53.96-12.56Q49.84-13.72 47.94-15.74Q46.04-17.76 46.04-20.80Q46.04-23.40 47.38-25.30Q48.72-27.20 51.16-28.22Q53.60-29.24 56.88-29.24Q61.92-29.24 64.92-26.86Q67.92-24.48 68.32-20.56L62.40-20.56Q62-22.68 60.46-23.68Q58.92-24.68 56.52-24.68Q54.44-24.68 53.20-23.88Q51.96-23.08 51.96-21.72Q51.96-20.68 52.64-19.82Q53.32-18.96 55.48-18.36L60.84-16.88Q65.08-15.72 66.94-13.70Q68.80-11.68 68.80-8.60Q68.80-4.28 65.80-1.96Q62.80 0.36 57.44 0.36M77.28 0L71.28 0L71.28-20.40L77.16-20.40L77.16-16.68Q78.12-18.36 79.72-19.48Q81.64-20.80 84.48-20.80Q87.88-20.80 89.68-18.90Q91.48-17 91.48-13.80L91.48 0L85.48 0L85.48-12.64Q85.48-14.32 84.62-15.16Q83.76-16 82.12-16Q80.72-16 79.62-15.36Q78.52-14.72 77.90-13.60Q77.28-12.48 77.28-10.96M101.24 0L95.24 0L95.24-20.40L101.24-20.40L101.24 0M101.44-23.12L95.04-23.12L95.04-29.60L101.44-29.60M112.80 0L106.80 0L106.80-15.84L103.40-15.84L103.40-20.40L106.80-20.40L106.80-21.76Q106.80-25.44 108.80-27.32Q110.80-29.20 114.72-29.20Q115.56-29.20 116.18-29.12Q116.80-29.04 117.40-28.84L117.40-24.24Q117.12-24.36 116.72-24.42Q116.32-24.48 115.76-24.48Q114.24-24.48 113.52-23.76Q112.80-23.04 112.80-21.68L112.80-20.40L116.96-20.40L116.96-15.84L112.80-15.84M127.12 0L121.12 0L121.12-15.84L117.72-15.84L117.72-20.40L121.12-20.40L121.12-21.76Q121.12-25.44 123.12-27.32Q125.12-29.20 129.04-29.20Q129.88-29.20 130.50-29.12Q131.12-29.04 131.72-28.84L131.72-24.24Q131.44-24.36 131.04-24.42Q130.64-24.48 130.08-24.48Q128.56-24.48 127.84-23.76Q127.12-23.04 127.12-21.68L127.12-20.40L131.28-20.40L131.28-15.84L127.12-15.84" fill="#1E1B2E"/><path d="M139.64 0L133.48 0L133.48-28.80L147.16-28.80Q150.36-28.80 152.66-27.68Q154.96-26.56 156.22-24.56Q157.48-22.56 157.48-19.88Q157.48-17.20 156.20-15.16Q154.92-13.12 152.62-11.98Q150.32-10.84 147.16-10.84L139.64-10.84L139.64 0M139.64-24.08L139.64-15.56L146.84-15.56Q148.96-15.56 150.14-16.74Q151.32-17.92 151.32-19.84Q151.32-21.76 150.14-22.92Q148.96-24.08 146.84-24.08M178.80 0L172.80 0Q172.56-0.88 172.48-1.88Q172.40-2.52 172.36-3.32Q171.52-1.68 170.08-0.76Q168.28 0.40 165.68 0.40Q162.64 0.40 160.84-1.14Q159.04-2.68 159.04-5.24Q159.04-8.08 161.18-9.82Q163.32-11.56 167.16-12.08L172.20-12.80L172.20-13.84Q172.20-15.08 171.38-15.78Q170.56-16.48 168.96-16.48Q167.44-16.48 166.54-15.96Q165.64-15.44 165.36-14.44L159.64-14.44Q160.04-17.20 162.48-19Q164.92-20.80 169.16-20.80Q173.56-20.80 175.88-18.84Q178.20-16.88 178.20-13.20L178.20-4.20Q178.20-3.20 178.34-2.18Q178.48-1.16 178.80 0M172.20-7.40L172.20-9.28L168.16-8.68Q166.56-8.44 165.80-7.80Q165.04-7.16 165.04-6.04Q165.04-5.04 165.76-4.52Q166.48-4 167.68-4Q169.56-4 170.88-5.02Q172.20-6.04 172.20-7.40M188 0L182 0L182-28.80L188-28.80" fill="#7C3AED"/></g><path transform="translate(0 157)" d="M12.12 0L5.12 0L5.12-10.08L11.99-10.08L11.99-8.86L6.60-8.86L6.60-5.82L11.61-5.82L11.61-4.61L6.60-4.61L6.60-1.22L12.12-1.22M17.38 0L16.09 0L13.18-7.14L14.74-7.14L16.77-1.60L18.78-7.14L20.28-7.14M24.62 0.14Q23.54 0.14 22.72-0.34Q21.90-0.81 21.44-1.65Q20.98-2.49 20.98-3.58Q20.98-4.69 21.44-5.52Q21.89-6.36 22.72-6.82Q23.54-7.28 24.61-7.28Q25.64-7.28 26.41-6.84Q27.17-6.40 27.58-5.61Q27.99-4.83 27.99-3.75Q27.99-3.58 27.99-3.44Q27.98-3.29 27.95-3.14L22.48-3.14Q22.56-2.24 23.04-1.68Q23.61-0.99 24.65-0.99Q25.28-0.99 25.74-1.25Q26.20-1.51 26.43-2.02L27.80-2.02Q27.45-1.01 26.62-0.43Q25.78 0.14 24.62 0.14M22.49-4.23L26.55-4.23Q26.47-5.07 26.05-5.54Q25.53-6.15 24.61-6.15Q23.61-6.15 23.04-5.47Q22.62-4.98 22.49-4.23M31 0L29.55 0L29.55-7.14L30.93-7.14L30.93-5.75Q31.20-6.43 31.69-6.80Q32.31-7.28 33.16-7.28Q33.48-7.28 33.61-7.22L33.61-5.85Q33.54-5.88 33.41-5.89Q33.29-5.89 33.10-5.89Q32.05-5.89 31.53-5.35Q31-4.80 31-3.72M37.01 2.87L35.51 2.87L36.97-0.46L34.11-7.14L35.69-7.14L37.74-2.07L39.70-7.14L41.21-7.14M47.33 0L45.87 0L45.87-5.98L44.50-5.98L44.50-7.14L45.87-7.14L45.87-7.97Q45.87-9.06 46.49-9.64Q47.11-10.22 48.34-10.22Q48.62-10.22 48.80-10.19Q48.98-10.16 49.12-10.11L49.12-8.99Q49.02-9.02 48.86-9.04Q48.70-9.07 48.51-9.07Q47.89-9.07 47.61-8.77Q47.33-8.47 47.33-7.92L47.33-7.14L48.97-7.14L48.97-5.98L47.33-5.98M51.89 0L50.44 0L50.44-7.14L51.82-7.14L51.82-5.75Q52.09-6.43 52.58-6.80Q53.20-7.28 54.05-7.28Q54.37-7.28 54.50-7.22L54.50-5.85Q54.43-5.88 54.30-5.89Q54.17-5.89 53.99-5.89Q52.94-5.89 52.42-5.35Q51.89-4.80 51.89-3.72M57.33 0L55.87 0L55.87-7.14L57.33-7.14L57.33 0M57.41-8.54L55.80-8.54L55.80-10.18L57.41-10.18M62.52 0.14Q61.44 0.14 60.62-0.34Q59.80-0.81 59.34-1.65Q58.88-2.49 58.88-3.58Q58.88-4.69 59.33-5.52Q59.79-6.36 60.62-6.82Q61.44-7.28 62.51-7.28Q63.54-7.28 64.30-6.84Q65.07-6.40 65.48-5.61Q65.89-4.83 65.89-3.75Q65.89-3.58 65.89-3.44Q65.88-3.29 65.85-3.14L60.38-3.14Q60.46-2.24 60.94-1.68Q61.51-0.99 62.55-0.99Q63.18-0.99 63.64-1.25Q64.10-1.51 64.33-2.02L65.70-2.02Q65.35-1.01 64.51-0.43Q63.68 0.14 62.52 0.14M60.39-4.23L64.45-4.23Q64.37-5.07 63.95-5.54Q63.43-6.15 62.51-6.15Q61.51-6.15 60.94-5.47Q60.52-4.98 60.39-4.23M68.90 0L67.45 0L67.45-7.14L68.83-7.14L68.83-5.78Q69.18-6.43 69.80-6.82Q70.53-7.28 71.49-7.28Q72.64-7.28 73.30-6.64Q73.96-5.99 73.96-4.93L73.96 0L72.52 0L72.52-4.59Q72.52-5.33 72.14-5.70Q71.77-6.06 71.05-6.06Q70.41-6.06 69.93-5.78Q69.45-5.50 69.18-5.01Q68.90-4.52 68.90-3.85M82.54 0L81.15 0L81.15-1.22Q80.90-0.69 80.37-0.34Q79.67 0.14 78.69 0.14Q77.72 0.14 77-0.32Q76.28-0.78 75.88-1.61Q75.48-2.44 75.48-3.54Q75.48-4.66 75.89-5.50Q76.30-6.34 77.02-6.80Q77.75-7.27 78.73-7.27Q79.75-7.27 80.42-6.79Q80.86-6.47 81.10-5.98L81.10-10.08L82.54-10.08L82.54 0M79.05-1.08Q80.02-1.08 80.58-1.74Q81.14-2.41 81.14-3.58Q81.14-4.73 80.57-5.40Q80-6.06 79.04-6.06Q78.09-6.06 77.53-5.40Q76.98-4.73 76.98-3.54Q76.98-2.38 77.53-1.73Q78.09-1.08 79.05-1.08M87.23 0.14Q85.83 0.14 85-0.48Q84.18-1.09 84.06-2.21L85.41-2.21Q85.51-1.60 85.98-1.27Q86.44-0.94 87.26-0.94Q87.97-0.94 88.35-1.19Q88.73-1.44 88.73-1.90Q88.73-2.24 88.51-2.47Q88.29-2.70 87.66-2.86L86.52-3.12Q85.44-3.39 84.91-3.91Q84.39-4.44 84.39-5.21Q84.39-6.17 85.11-6.73Q85.83-7.28 87.09-7.28Q88.33-7.28 89.10-6.72Q89.86-6.16 89.96-5.15L88.61-5.15Q88.53-5.66 88.13-5.93Q87.73-6.20 87.05-6.20Q86.40-6.20 86.06-5.97Q85.72-5.74 85.72-5.33Q85.72-5 85.98-4.77Q86.23-4.55 86.84-4.40L88.01-4.10Q89.03-3.85 89.55-3.28Q90.07-2.72 90.07-1.92Q90.07-0.95 89.32-0.41Q88.57 0.14 87.23 0.14M92.94 0L91.48 0L91.48-10.08L92.94-10.08L92.94-5.91Q93.28-6.47 93.84-6.82Q94.56-7.28 95.53-7.28Q96.68-7.28 97.34-6.64Q97.99-5.99 97.99-4.93L97.99 0L96.55 0L96.55-4.59Q96.55-5.33 96.18-5.70Q95.81-6.06 95.08-6.06Q94.45-6.06 93.97-5.78Q93.49-5.50 93.21-5.01Q92.94-4.52 92.94-3.85M101.49 0L100.04 0L100.04-7.14L101.49-7.14L101.49 0M101.58-8.54L99.97-8.54L99.97-10.18L101.58-10.18M107.42 0.13Q106.41 0.13 105.75-0.36Q105.30-0.67 105.06-1.16L105.06 2.87L103.61 2.87L103.61-7.14L104.99-7.14L104.99-5.92Q105.26-6.47 105.81-6.82Q106.53-7.28 107.51-7.28Q108.48-7.28 109.19-6.82Q109.89-6.36 110.28-5.53Q110.66-4.70 110.66-3.60Q110.66-2.48 110.26-1.64Q109.85-0.80 109.12-0.34Q108.40 0.13 107.42 0.13M107.11-1.08Q108.06-1.08 108.62-1.75Q109.18-2.42 109.18-3.60Q109.18-4.76 108.62-5.41Q108.06-6.06 107.09-6.06Q106.14-6.06 105.58-5.40Q105.01-4.73 105.01-3.56Q105.01-2.41 105.58-1.74Q106.14-1.08 107.11-1.08M117.66 0.14Q116.26 0.14 115.44-0.48Q114.61-1.09 114.50-2.21L115.84-2.21Q115.94-1.60 116.41-1.27Q116.88-0.94 117.69-0.94Q118.41-0.94 118.78-1.19Q119.16-1.44 119.16-1.90Q119.16-2.24 118.95-2.47Q118.73-2.70 118.10-2.86L116.95-3.12Q115.87-3.39 115.35-3.91Q114.82-4.44 114.82-5.21Q114.82-6.17 115.54-6.73Q116.26-7.28 117.52-7.28Q118.77-7.28 119.53-6.72Q120.30-6.16 120.39-5.15L119.05-5.15Q118.97-5.66 118.57-5.93Q118.17-6.20 117.48-6.20Q116.84-6.20 116.50-5.97Q116.15-5.74 116.15-5.33Q116.15-5 116.41-4.77Q116.67-4.55 117.27-4.40L118.45-4.10Q119.47-3.85 119.99-3.28Q120.51-2.72 120.51-1.92Q120.51-0.95 119.76-0.41Q119.01 0.14 117.66 0.14M124.96 0.14Q123.71 0.14 123.13-0.44Q122.55-1.02 122.55-2.16L122.55-5.98L121.12-5.98L121.12-7.14L122.55-7.14L122.55-8.78L123.99-9.32L123.99-7.14L126.02-7.14L126.02-5.98L123.99-5.98L123.99-2.14Q123.99-1.58 124.29-1.32Q124.58-1.05 125.24-1.05Q125.49-1.05 125.69-1.09Q125.88-1.13 126.02-1.19L126.02-0.01Q125.87 0.06 125.59 0.10Q125.31 0.14 124.96 0.14M133.32 0L131.90 0Q131.83-0.27 131.82-0.59Q131.79-0.83 131.79-1.13Q131.53-0.59 131.01-0.27Q130.36 0.14 129.44 0.14Q128.35 0.14 127.70-0.40Q127.06-0.94 127.06-1.86Q127.06-2.81 127.74-3.37Q128.42-3.92 129.69-4.12L131.72-4.44L131.72-4.77Q131.72-5.46 131.38-5.80Q131.03-6.15 130.29-6.15Q129.58-6.15 129.15-5.87Q128.72-5.59 128.66-5.07L127.27-5.07Q127.37-6.08 128.18-6.68Q128.99-7.28 130.35-7.28Q131.75-7.28 132.45-6.63Q133.15-5.98 133.15-4.72L133.15-1.37Q133.15-1.05 133.19-0.71Q133.23-0.38 133.32 0M131.72-2.44L131.72-3.42L129.92-3.14Q129.20-3.02 128.84-2.76Q128.49-2.49 128.49-1.99Q128.49-1.50 128.82-1.25Q129.15-1.01 129.78-1.01Q130.62-1.01 131.17-1.41Q131.72-1.82 131.72-2.44M136.65 0L135.19 0L135.19-7.14L136.58-7.14L136.58-5.75Q136.85-6.43 137.34-6.80Q137.95-7.28 138.81-7.28Q139.13-7.28 139.25-7.22L139.25-5.85Q139.18-5.88 139.06-5.89Q138.93-5.89 138.75-5.89Q137.70-5.89 137.17-5.35Q136.65-4.80 136.65-3.72M143.66 0.14Q142.42 0.14 141.84-0.44Q141.25-1.02 141.25-2.16L141.25-5.98L139.83-5.98L139.83-7.14L141.25-7.14L141.25-8.78L142.70-9.32L142.70-7.14L144.73-7.14L144.73-5.98L142.70-5.98L142.70-2.14Q142.70-1.58 142.99-1.32Q143.28-1.05 143.94-1.05Q144.20-1.05 144.39-1.09Q144.59-1.13 144.73-1.19L144.73-0.01Q144.57 0.06 144.29 0.10Q144.01 0.14 143.66 0.14M148.76 0.14Q147.36 0.14 146.53-0.48Q145.71-1.09 145.59-2.21L146.94-2.21Q147.04-1.60 147.51-1.27Q147.97-0.94 148.79-0.94Q149.50-0.94 149.88-1.19Q150.26-1.44 150.26-1.90Q150.26-2.24 150.04-2.47Q149.82-2.70 149.19-2.86L148.04-3.12Q146.97-3.39 146.44-3.91Q145.92-4.44 145.92-5.21Q145.92-6.17 146.64-6.73Q147.36-7.28 148.62-7.28Q149.87-7.28 150.63-6.72Q151.39-6.16 151.49-5.15L150.15-5.15Q150.06-5.66 149.66-5.93Q149.26-6.20 148.58-6.20Q147.93-6.20 147.59-5.97Q147.25-5.74 147.25-5.33Q147.25-5 147.51-4.77Q147.77-4.55 148.37-4.40L149.54-4.10Q150.56-3.85 151.08-3.28Q151.60-2.72 151.60-1.92Q151.60-0.95 150.85-0.41Q150.10 0.14 148.76 0.14M158.59 0L157.31 0L155.13-7.14L156.63-7.14L158.01-1.76L159.71-7.14L160.97-7.14L162.66-1.75L164.05-7.14L165.47-7.14L163.29 0L162.02 0L160.31-5.32M168.33 0L166.88 0L166.88-7.14L168.33-7.14L168.33 0M168.42-8.54L166.81-8.54L166.81-10.18L168.42-10.18M173.48 0.14Q172.24 0.14 171.66-0.44Q171.07-1.02 171.07-2.16L171.07-5.98L169.65-5.98L169.65-7.14L171.07-7.14L171.07-8.78L172.52-9.32L172.52-7.14L174.55-7.14L174.55-5.98L172.52-5.98L172.52-2.14Q172.52-1.58 172.81-1.32Q173.10-1.05 173.76-1.05Q174.02-1.05 174.21-1.09Q174.41-1.13 174.55-1.19L174.55-0.01Q174.39 0.06 174.11 0.10Q173.83 0.14 173.48 0.14M177.46 0L176 0L176-10.08L177.46-10.08L177.46-5.91Q177.79-6.47 178.35-6.82Q179.08-7.28 180.05-7.28Q181.20-7.28 181.85-6.64Q182.51-5.99 182.51-4.93L182.51 0L181.07 0L181.07-4.59Q181.07-5.33 180.70-5.70Q180.33-6.06 179.60-6.06Q178.97-6.06 178.49-5.78Q178-5.50 177.73-5.01Q177.46-4.52 177.46-3.85M193.22 0L191.81 0Q191.74-0.27 191.72-0.59Q191.70-0.83 191.70-1.13Q191.43-0.59 190.91-0.27Q190.27 0.14 189.34 0.14Q188.25 0.14 187.61-0.40Q186.97-0.94 186.97-1.86Q186.97-2.81 187.64-3.37Q188.32-3.92 189.60-4.12L191.63-4.44L191.63-4.77Q191.63-5.46 191.28-5.80Q190.94-6.15 190.20-6.15Q189.49-6.15 189.06-5.87Q188.63-5.59 188.56-5.07L187.18-5.07Q187.27-6.08 188.09-6.68Q188.90-7.28 190.25-7.28Q191.66-7.28 192.35-6.63Q193.06-5.98 193.06-4.72L193.06-1.37Q193.06-1.05 193.10-0.71Q193.14-0.38 193.22 0M191.63-2.44L191.63-3.42L189.82-3.14Q189.11-3.02 188.75-2.76Q188.39-2.49 188.39-1.99Q188.39-1.50 188.72-1.25Q189.05-1.01 189.68-1.01Q190.52-1.01 191.07-1.41Q191.63-1.82 191.63-2.44M200.50 0.14Q199.10 0.14 198.28-0.48Q197.45-1.09 197.34-2.21L198.68-2.21Q198.78-1.60 199.25-1.27Q199.72-0.94 200.53-0.94Q201.25-0.94 201.62-1.19Q202-1.44 202-1.90Q202-2.24 201.78-2.47Q201.57-2.70 200.94-2.86L199.79-3.12Q198.71-3.39 198.19-3.91Q197.66-4.44 197.66-5.21Q197.66-6.17 198.38-6.73Q199.10-7.28 200.36-7.28Q201.61-7.28 202.37-6.72Q203.13-6.16 203.23-5.15L201.89-5.15Q201.81-5.66 201.41-5.93Q201.01-6.20 200.32-6.20Q199.68-6.20 199.33-5.97Q198.99-5.74 198.99-5.33Q198.99-5 199.25-4.77Q199.51-4.55 200.11-4.40L201.29-4.10Q202.31-3.85 202.83-3.28Q203.34-2.72 203.34-1.92Q203.34-0.95 202.60-0.41Q201.85 0.14 200.50 0.14M206.22 0L204.76 0L204.76-7.14L206.14-7.14L206.14-5.78Q206.50-6.43 207.11-6.82Q207.84-7.28 208.81-7.28Q209.95-7.28 210.61-6.64Q211.27-5.99 211.27-4.93L211.27 0L209.83 0L209.83-4.59Q209.83-5.33 209.46-5.70Q209.09-6.06 208.36-6.06Q207.73-6.06 207.24-5.78Q206.76-5.50 206.49-5.01Q206.22-4.52 206.22-3.85M214.77 0L213.31 0L213.31-7.14L214.77-7.14L214.77 0M214.85-8.54L213.24-8.54L213.24-10.18L214.85-10.18M218.91 0L217.46 0L217.46-5.98L216.08-5.98L216.08-7.14L217.46-7.14L217.46-7.97Q217.46-9.06 218.07-9.64Q218.69-10.22 219.92-10.22Q220.20-10.22 220.38-10.19Q220.56-10.16 220.70-10.11L220.70-8.99Q220.61-9.02 220.45-9.04Q220.28-9.07 220.09-9.07Q219.47-9.07 219.19-8.77Q218.91-8.47 218.91-7.92L218.91-7.14L220.55-7.14L220.55-5.98L218.91-5.98M224.05 0L222.59 0L222.59-5.98L221.22-5.98L221.22-7.14L222.59-7.14L222.59-7.97Q222.59-9.06 223.21-9.64Q223.83-10.22 225.06-10.22Q225.34-10.22 225.52-10.19Q225.70-10.16 225.84-10.11L225.84-8.99Q225.75-9.02 225.58-9.04Q225.42-9.07 225.23-9.07Q224.61-9.07 224.33-8.77Q224.05-8.47 224.05-7.92L224.05-7.14L225.69-7.14L225.69-5.98L224.05-5.98M228.85 0L227.13 0L227.13-1.74L228.85-1.74" fill="#637083"/></svg>
